<svg width="43" height="42" viewBox="0 0 43 42" fill="none" xmlns="http://www.w3.org/2000/svg">
<path d="M21.4078 29.0031C17.1105 29.0031 13.6133 25.5059 13.6133 21.2086C13.6133 16.9113 17.1105 13.4141 21.4078 13.4141C22.2996 13.4141 23.1803 13.5609 24.0133 13.8618L23.1032 16.4233C22.5601 16.2288 21.9876 16.1333 21.4041 16.1333C18.6041 16.1333 16.3289 18.4086 16.3289 21.2086C16.3289 24.0086 18.6041 26.2838 21.4041 26.2838C24.2042 26.2838 26.4794 24.0086 26.4794 21.2086C26.4794 20.6251 26.3803 20.0526 26.1895 19.5095L28.751 18.5994C29.0445 19.4324 29.1987 20.3095 29.1987 21.2049C29.2023 25.5059 25.7051 29.0031 21.4078 29.0031Z" fill="#040606"/>
<path d="M28.7392 8.20356L35.4879 1.42188L36.5741 6.04208L41.198 7.12832L34.4127 13.877H30.0236L22.0456 21.8477L20.7686 20.5706L28.7392 12.5926V8.20356Z" fill="#040606"/>
<path d="M21.4078 35.6946C17.5362 35.6946 13.8995 34.1826 11.1619 31.4487C8.42061 28.711 6.91602 25.0743 6.91602 21.2027C6.91602 17.3312 8.42795 13.6945 11.1619 10.9568C13.8995 8.21553 17.5362 6.71094 21.4078 6.71094C23.0702 6.71094 24.6996 6.99351 26.2519 7.54397L25.3418 10.1018C24.0831 9.65407 22.7583 9.42655 21.4042 9.42655C14.9124 9.42655 9.63162 14.7073 9.63162 21.1991C9.63162 27.6909 14.9161 32.9753 21.4078 32.9753C27.8959 32.9753 33.1804 27.6909 33.1804 21.2027C33.1804 19.8523 32.9528 18.5275 32.5015 17.2651L35.0629 16.355C35.6171 17.9073 35.8923 19.5404 35.8923 21.1991C35.8923 25.067 34.384 28.7074 31.6501 31.445C28.9161 34.1826 25.2794 35.6946 21.4078 35.6946Z" fill="#040606"/>
<path d="M21.4072 41.875C18.6182 41.875 15.91 41.3282 13.3632 40.253C10.9008 39.2108 8.68792 37.7246 6.79433 35.8236C4.89708 33.9264 3.41083 31.7172 2.36495 29.2585C1.28605 26.7043 0.739258 23.9961 0.739258 21.207C0.739258 18.418 1.28605 15.7098 2.36128 13.163C3.40349 10.7006 4.88974 8.48772 6.79066 6.59414C8.68792 4.70055 10.8971 3.21063 13.3558 2.16476C15.91 1.08952 18.6182 0.539062 21.4072 0.539062C23.7779 0.539062 26.1008 0.939064 28.3174 1.72072L27.4073 4.2822C25.488 3.60697 23.466 3.25834 21.4072 3.25834C11.5136 3.25834 3.45854 11.3098 3.45854 21.207C3.45854 31.1043 11.5099 39.1558 21.4072 39.1558C31.3045 39.1558 39.3559 31.1043 39.3559 21.207C39.3559 19.1483 39.011 17.1263 38.3284 15.207L40.8862 14.2969C41.6752 16.5134 42.0752 18.8364 42.0752 21.207C42.0752 23.9961 41.5248 26.7043 40.4532 29.2511C39.411 31.7135 37.9248 33.9264 36.0238 35.82C34.1229 37.7172 31.9174 39.2035 29.4587 40.2493C26.9045 41.3282 24.1962 41.875 21.4072 41.875Z" fill="#040606"/>
</svg>
