<svg width="50" height="43" viewBox="0 0 50 43" fill="none" xmlns="http://www.w3.org/2000/svg">
<path d="M48.9807 20.644C48.8294 20.4666 47.4929 18.9269 45.2686 16.9786C45.2459 16.8638 45.2258 16.7474 45.2004 16.6335L44.9363 16.6927C44.4123 16.2418 43.8473 15.7741 43.2368 15.2976L44.7194 14.8238C44.5348 14.2361 44.324 13.6528 44.0905 13.089L42.475 13.7667C42.6516 14.1937 42.8038 14.6358 42.9508 15.0788C38.5258 11.6789 32.0341 7.98438 24.7026 7.98438C17.372 7.98438 10.8811 11.6781 6.45529 15.0779C6.59786 14.6455 6.74655 14.2114 6.92061 13.787L5.30423 13.1128C5.06982 13.6828 4.85989 14.2661 4.67709 14.8485L6.14478 15.3153C5.54214 15.7865 4.98497 16.2479 4.46717 16.6935L4.2039 16.6353C4.1794 16.7491 4.15929 16.8647 4.13655 16.9786C1.91227 18.9269 0.575776 20.4666 0.424458 20.644C0.141066 20.9749 0.141066 21.4664 0.424458 21.7973C0.575776 21.9746 1.91227 23.5144 4.13655 25.4627C4.15929 25.5774 4.1794 25.693 4.2039 25.806L4.46717 25.7477C4.99197 26.1986 5.557 26.6663 6.1684 27.1437L4.68584 27.6175C4.87039 28.2052 5.08119 28.7884 5.31472 29.3523L6.93023 28.6746C6.75355 28.2475 6.60136 27.8055 6.45441 27.3625C10.8794 30.7615 17.3711 34.456 24.7026 34.456C32.0332 34.456 38.5241 30.7623 42.9499 27.3625C42.8073 27.7949 42.6586 28.229 42.4846 28.6534L44.101 29.3276C44.3354 28.7576 44.5453 28.1743 44.7281 27.5919L43.2604 27.1251C43.8622 26.6548 44.4193 26.1933 44.9371 25.7486L45.2013 25.8077C45.2267 25.693 45.2459 25.5774 45.2695 25.4627C47.4938 23.5144 48.8303 21.9746 48.9816 21.7973C49.2641 21.4655 49.2641 20.9749 48.9807 20.644ZM35.1986 21.2202C35.1986 27.5452 30.4903 32.6912 24.7026 32.6912C18.9149 32.6912 14.2066 27.5452 14.2066 21.2202C14.2066 14.8952 18.9149 9.74915 24.7026 9.74915C30.4903 9.74915 35.1986 14.8952 35.1986 21.2202ZM2.27525 21.2202C3.94762 19.4466 9.44665 14.0411 16.5892 11.333C14.0614 13.7587 12.4573 17.2865 12.4573 21.2202C12.4573 25.1539 14.0614 28.6817 16.5901 31.1074C9.44665 28.3993 3.94849 22.9938 2.27525 21.2202ZM32.8151 31.1074C35.3438 28.6817 36.9479 25.1539 36.9479 21.2202C36.9479 17.2865 35.3438 13.7587 32.8151 11.333C39.9585 14.0411 45.4567 19.4466 47.1299 21.2202C45.4567 22.9938 39.9585 28.3993 32.8151 31.1074Z" fill="black"/>
<path d="M18.9063 2.69922L18.3798 1.01562C17.8033 1.19916 17.2252 1.41182 16.6602 1.6483L17.3302 3.27895C17.848 3.06188 18.3789 2.86687 18.9063 2.69922Z" fill="black"/>
<path d="M25.5299 1.82073L25.6033 0.0577155C24.9946 0.0321264 24.3788 0.0330087 23.7744 0.0594801L23.8496 1.82249C24.4068 1.79779 24.9736 1.79778 25.5299 1.82073Z" fill="black"/>
<path d="M22.1803 1.96764L21.9511 0.21875C21.3467 0.299047 20.7397 0.406699 20.1484 0.538175L20.5263 2.26148C21.0695 2.13971 21.6249 2.04176 22.1803 1.96764Z" fill="black"/>
<path d="M15.8128 3.9924L15.0011 2.42969C14.4588 2.71558 13.9262 3.02706 13.418 3.35443L14.3591 4.84214C14.8262 4.54036 15.3151 4.25535 15.8128 3.9924Z" fill="black"/>
<path d="M12.9848 5.81353L11.9186 4.41406C11.434 4.78996 10.9626 5.18968 10.5156 5.60352L11.6999 6.90328C12.1093 6.52474 12.5414 6.15766 12.9848 5.81353Z" fill="black"/>
<path d="M10.5162 8.09924L9.22603 6.90625C8.81493 7.35891 8.41871 7.83452 8.04785 8.3216L9.43507 9.39723C9.77619 8.95074 10.1392 8.51308 10.5162 8.09924Z" fill="black"/>
<path d="M8.47132 10.7932L6.99663 9.84375C6.67125 10.3582 6.36162 10.8956 6.0791 11.4426L7.62989 12.2597C7.88966 11.7568 8.17393 11.2644 8.47132 10.7932Z" fill="black"/>
<path d="M38.8688 5.58613C38.4201 5.17141 37.9478 4.77169 37.4658 4.39844L36.4014 5.79967C36.8439 6.14204 37.2769 6.50823 37.6889 6.88677L38.8688 5.58613Z" fill="black"/>
<path d="M29.2314 0.535528C28.6392 0.404934 28.0331 0.297282 27.4278 0.21875L27.2021 1.96764C27.7567 2.04088 28.313 2.13883 28.8553 2.25883L29.2314 0.535528Z" fill="black"/>
<path d="M41.3424 8.30421C40.9707 7.81713 40.5745 7.34241 40.1634 6.89062L38.875 8.08538C39.252 8.49922 39.6158 8.93512 39.9561 9.38161L41.3424 8.30421Z" fill="black"/>
<path d="M41.766 12.2372L43.3151 11.4166C43.0308 10.8712 42.7212 10.333 42.3958 9.82031L40.9229 10.7715C41.222 11.2427 41.5054 11.736 41.766 12.2372Z" fill="black"/>
<path d="M35.9682 3.34662C35.453 3.01572 34.9203 2.70424 34.3824 2.42188L33.5742 3.98635C34.0667 4.24577 34.5556 4.5299 35.027 4.83344L35.9682 3.34662Z" fill="black"/>
<path d="M32.7215 1.63179C32.1617 1.39707 31.5818 1.1853 30.9984 1L30.4736 2.6836C31.0081 2.85213 31.5381 3.04714 32.0498 3.26156L32.7215 1.63179Z" fill="black"/>
<path d="M13.4385 39.0884C13.9537 39.4193 14.4863 39.7308 15.0242 40.0131L15.8324 38.4487C15.34 38.1892 14.8511 37.9051 14.3796 37.6016L13.4385 39.0884Z" fill="black"/>
<path d="M27.2256 40.4657L27.4547 42.2146C28.0591 42.1343 28.6662 42.0267 29.2574 41.8952L28.8796 40.1719C28.3364 40.2936 27.781 40.3916 27.2256 40.4657Z" fill="black"/>
<path d="M30.498 39.736L31.0246 41.4196C31.601 41.236 32.1792 41.0234 32.7442 40.7869L32.0742 39.1562C31.5564 39.3733 31.0255 39.5683 30.498 39.736Z" fill="black"/>
<path d="M33.5938 38.4357L34.4054 39.9984C34.9477 39.7125 35.4804 39.401 35.9886 39.0736L35.0474 37.5859C34.5804 37.8877 34.0914 38.1727 33.5938 38.4357Z" fill="black"/>
<path d="M38.8887 34.3292L40.1788 35.5222C40.5899 35.0696 40.9861 34.594 41.357 34.1069L39.9698 33.0312C39.6286 33.4777 39.2657 33.9154 38.8887 34.3292Z" fill="black"/>
<path d="M40.9355 31.6462L42.4102 32.5957C42.7356 32.0812 43.0452 31.5439 43.3278 30.9968L41.777 30.1797C41.5172 30.6826 41.2329 31.175 40.9355 31.6462Z" fill="black"/>
<path d="M36.4189 36.6132L37.4852 38.0127C37.9697 37.6368 38.4412 37.237 38.8881 36.8232L37.7038 35.5234C37.2945 35.902 36.8624 36.2691 36.4189 36.6132Z" fill="black"/>
<path d="M7.63986 30.2031L6.09082 31.0237C6.37509 31.5691 6.68472 32.1073 7.0101 32.62L8.48304 31.6688C8.1839 31.1976 7.90051 30.7043 7.63986 30.2031Z" fill="black"/>
<path d="M8.06152 34.1243C8.43326 34.6113 8.82948 35.0861 9.24057 35.5379L10.529 34.3431C10.152 33.9293 9.78812 33.4934 9.44787 33.0469L8.06152 34.1243Z" fill="black"/>
<path d="M10.5361 36.8397C10.9848 37.2544 11.4572 37.6541 11.9391 38.0274L13.0036 36.6262C12.561 36.2838 12.128 35.9176 11.7161 35.5391L10.5361 36.8397Z" fill="black"/>
<path d="M20.1738 41.903C20.766 42.0336 21.3721 42.1412 21.9774 42.2198L22.2031 40.4709C21.6485 40.3976 21.0922 40.2997 20.5499 40.1797L20.1738 41.903Z" fill="black"/>
<path d="M16.6826 40.7938C17.2424 41.0285 17.8223 41.2403 18.4057 41.4256L18.9305 39.742C18.3961 39.5735 17.866 39.3785 17.3544 39.1641L16.6826 40.7938Z" fill="black"/>
<path d="M23.8752 40.6103L23.8018 42.3733C24.1009 42.3865 24.4009 42.3927 24.7027 42.3927C25.014 42.3927 25.3237 42.3856 25.6307 42.3724L25.5555 40.6094C24.9983 40.6323 24.4315 40.6341 23.8752 40.6103Z" fill="black"/>
<path d="M17.4487 25.3618L21.2036 21.5737L24.0839 24.4794C24.4259 24.8244 24.9787 24.8244 25.3207 24.4794L30.825 18.9265V21.2084H32.5743V16.7965C32.5743 16.3085 32.1833 15.9141 31.6996 15.9141H27.3263V17.6788H29.5882L24.7023 22.6079L21.822 19.7022C21.48 19.3571 20.9272 19.3571 20.5852 19.7022L16.2119 24.1141L17.4487 25.3618Z" fill="black"/>
<path d="M23.8281 26.5078H25.5775V28.2726H23.8281V26.5078Z" fill="black"/>
<path d="M27.3262 26.5078H29.0755V28.2726H27.3262V26.5078Z" fill="black"/>
<path d="M20.3281 26.5078H22.0775V28.2726H20.3281V26.5078Z" fill="black"/>
</svg>
