<svg width="43" height="51" viewBox="0 0 43 51" fill="none" xmlns="http://www.w3.org/2000/svg">
<path d="M21.5998 6.35938C13.3653 6.35938 6.66602 12.9665 6.66602 21.0879C6.66725 22.8625 6.98156 24.5798 7.60893 26.2399C8.2363 27.9 9.13643 29.3961 10.3093 30.7284C10.7909 31.2766 11.3295 31.776 11.7836 32.3484C12.9319 33.8128 13.8744 35.3993 14.6113 37.1079C15.184 38.4289 15.5816 39.8007 15.8039 41.2231C15.8446 41.5085 15.9339 41.7777 16.072 42.0308C16.21 42.2839 16.3879 42.5049 16.6058 42.6937C16.8237 42.8826 17.0678 43.0274 17.338 43.1281C17.6083 43.2288 17.8876 43.2791 18.176 43.279H25.0235C25.3119 43.2791 25.5912 43.2288 25.8615 43.1281C26.1317 43.0274 26.3758 42.8826 26.5937 42.6937C26.8116 42.5049 26.9895 42.2839 27.1276 42.0308C27.2656 41.7777 27.3549 41.5085 27.3956 41.2231C27.6142 39.8235 28.0027 38.4727 28.5614 37.1708C29.1628 35.7282 29.903 34.3605 30.782 33.0679C31.2655 32.4275 31.7985 31.8313 32.3812 31.2794C33.7136 29.9177 34.7391 28.3548 35.4578 26.5908C36.1765 24.8268 36.5351 22.9925 36.5335 21.0879C36.5335 12.9665 29.8342 6.35938 21.5998 6.35938ZM31.2536 30.1847C30.6088 30.7973 30.0207 31.4602 29.4896 32.1735C28.5497 33.5542 27.758 35.0152 27.1145 36.5564C26.5042 37.9798 26.08 39.4566 25.8417 40.9868C25.812 41.1909 25.7198 41.3611 25.5651 41.4975C25.4103 41.6339 25.2298 41.704 25.0235 41.7079H23.9577V39.3513C23.9577 39.1344 23.881 38.9493 23.7275 38.7959C23.574 38.6425 23.3888 38.5658 23.1717 38.5658C22.9547 38.5658 22.7694 38.6425 22.616 38.7959C22.4625 38.9493 22.3857 39.1344 22.3857 39.3513V41.7079H20.7942V26.6775C20.7942 26.1701 20.809 25.9319 20.9504 25.7815C21.4041 25.3368 21.948 25.0932 22.5821 25.0508C22.5972 25.0489 22.6122 25.0466 22.6271 25.0439L22.9637 24.9845C23.6162 25.3642 24.3187 25.5232 25.0713 25.4616C25.8035 25.4616 26.4663 25.2473 27.0598 24.8188C27.837 25.0119 28.6124 25.0048 29.3859 24.7977C30.3331 24.5348 31.1304 24.0337 31.7779 23.2945C32.4253 22.5552 32.8167 21.699 32.952 20.7259C33.0873 19.7529 32.9444 18.8225 32.5232 17.9348C32.102 17.0471 31.4716 16.3477 30.6321 15.8367C30.56 15.4387 30.4225 15.0647 30.2196 14.7147C30.0167 14.3648 29.7605 14.0596 29.4508 13.7991C29.1412 13.5387 28.7966 13.3385 28.4169 13.1984C28.0372 13.0584 27.6451 12.9868 27.2404 12.9838C27.1297 12.9838 27.0195 12.9891 26.91 12.9999C26.6216 12.5019 26.2328 12.1013 25.7435 11.7981C25.2543 11.4949 24.7224 11.3249 24.1479 11.2881C24.0954 11.2774 24.0424 11.272 23.9888 11.272C23.9734 11.272 23.9586 11.2741 23.937 11.2739C23.9208 11.2739 23.905 11.2768 23.8889 11.2771C23.8001 11.2799 23.7119 11.2847 23.6252 11.2948C23.1225 11.3394 22.6531 11.4886 22.2169 11.7422C21.8714 11.4861 21.491 11.3021 21.0757 11.1901C20.6605 11.078 20.2391 11.0458 19.8116 11.0934C19.3841 11.1409 18.9802 11.265 18.5997 11.4656C18.2193 11.6661 17.8887 11.9293 17.608 12.255C17.3736 12.2048 17.1365 12.1797 16.8967 12.1798C16.1535 12.1824 15.4813 12.4019 14.8799 12.8383C14.2786 13.2748 13.8618 13.8458 13.6295 14.5513C13.1896 14.6888 12.7918 14.9041 12.4361 15.1971C12.0804 15.4902 11.7931 15.8394 11.5741 16.2448C11.3552 16.6501 11.2207 17.0818 11.1707 17.5398C11.1208 17.9978 11.159 18.4483 11.2854 18.8913C10.9508 19.2148 10.6899 19.5896 10.5027 20.0156C10.3156 20.4417 10.216 20.8873 10.2041 21.3524C10.1922 21.8176 10.2688 22.2676 10.4339 22.7027C10.599 23.1377 10.8404 23.5254 11.158 23.8656C11.1626 23.8921 11.1685 23.9197 11.176 23.9477C12.038 27.2102 14.5656 27.6294 14.6729 27.6459C14.885 27.6781 15.0776 27.6309 15.2508 27.5042C15.4239 27.3776 15.5272 27.2084 15.5607 26.9966C15.5946 26.7838 15.5491 26.5897 15.4242 26.4142C15.2992 26.2386 15.1307 26.1319 14.9185 26.0941C14.8532 26.0826 13.3346 25.7869 12.7244 23.6505C12.7267 23.6313 12.7288 23.6121 12.7302 23.5929C12.7503 23.3281 12.6594 23.1093 12.4575 22.9367C12.2407 22.749 12.0727 22.5248 11.9536 22.2641C11.8344 22.0033 11.7749 21.7296 11.7749 21.443C11.775 21.1564 11.8346 20.8827 11.9538 20.622C12.073 20.3613 12.241 20.1371 12.4578 19.9495C12.4763 19.9358 12.4961 19.9248 12.5137 19.9093C12.6724 19.7677 12.8524 19.6628 13.0538 19.5945C13.2552 19.5262 13.4619 19.5 13.674 19.5158C13.8861 19.5316 14.0866 19.5882 14.2756 19.6856C14.4647 19.783 14.6271 19.9134 14.763 20.0769C14.9032 20.2427 15.0815 20.3346 15.2979 20.3527C15.5143 20.3708 15.7054 20.3097 15.8711 20.1695C16.0369 20.0293 16.1287 19.851 16.1466 19.6347C16.1645 19.4184 16.1032 19.2275 15.9627 19.062C15.5694 18.5917 15.08 18.2652 14.4945 18.0827C13.909 17.9002 13.3207 17.8906 12.7296 18.054C12.7266 18.0091 12.7219 17.9644 12.7219 17.919C12.7165 17.4372 12.8706 17.0134 13.1841 16.6474C13.4976 16.2814 13.8929 16.064 14.3701 15.9951C14.754 15.9459 14.9788 15.7308 15.0446 15.3495C15.1136 14.923 15.306 14.5623 15.6219 14.2673C15.9378 13.9724 16.311 13.805 16.7414 13.7651C16.7568 13.766 16.7715 13.7697 16.7965 13.7697C17.1396 13.7722 17.4509 13.873 17.7303 14.0719C18.0098 14.2708 18.2068 14.5319 18.3213 14.8551C18.3842 15.033 18.4165 15.2162 18.4182 15.4048C18.4212 15.6214 18.5002 15.8053 18.6555 15.9565C18.8107 16.1077 18.9966 16.1821 19.2134 16.1795C19.4301 16.177 19.6143 16.0983 19.7659 15.9435C19.9175 15.7887 19.9923 15.603 19.9902 15.3864C19.9865 15.0236 19.9239 14.6712 19.8025 14.3293C19.6332 13.8521 19.366 13.438 19.001 13.087C19.3432 12.7922 19.7402 12.6443 20.1921 12.6436C20.5601 12.6452 20.8964 12.7493 21.2009 12.9558C20.942 13.4372 20.813 13.9512 20.8138 14.4977C20.8138 14.7146 20.8905 14.8997 21.044 15.0531C21.1975 15.2065 21.3827 15.2832 21.5998 15.2832C21.8168 15.2832 22.0021 15.2065 22.1555 15.0531C22.309 14.8997 22.3857 14.7146 22.3857 14.4977C22.3828 14.2849 22.4202 14.0794 22.4978 13.8812C22.5755 13.683 22.6876 13.5068 22.8343 13.3525C22.981 13.1983 23.1514 13.0773 23.3455 12.9898C23.5396 12.9022 23.743 12.8544 23.9558 12.8465C24.3564 12.8546 24.7178 12.9777 25.0401 13.2156C25.3623 13.4535 25.5862 13.7626 25.7118 14.1429C25.7807 14.3446 25.9103 14.4936 26.1006 14.5899C26.2908 14.6863 26.4877 14.7026 26.6912 14.6388C26.8697 14.5828 27.0528 14.5548 27.2404 14.5548C27.6765 14.5602 28.0646 14.6995 28.4045 14.9726C28.7444 15.2458 28.9638 15.5947 29.0626 16.0192C29.0591 16.0328 29.053 16.0452 29.0501 16.0591C28.9837 16.3983 28.8251 16.6869 28.5745 16.925C28.3239 17.1631 28.0275 17.3067 27.6852 17.3559C27.4697 17.3839 27.2957 17.4839 27.1633 17.6561C27.0309 17.8283 26.9788 18.022 27.0072 18.2373C27.0356 18.4526 27.1361 18.6263 27.3086 18.7583C27.4812 18.8903 27.6751 18.9419 27.8905 18.9131C28.8818 18.7775 29.6387 18.2834 30.1612 17.4307C30.6212 17.7997 30.9612 18.2576 31.1812 18.8046C31.4011 19.3516 31.4727 19.9173 31.396 20.5018C31.3118 21.1652 31.0506 21.7495 30.6123 22.2546C30.1739 22.7598 29.6321 23.1009 28.987 23.278C28.3642 23.4444 27.749 23.4203 27.1412 23.2055C26.8402 23.101 26.5741 23.1583 26.3429 23.3774C25.9875 23.7179 25.5636 23.889 25.0712 23.8906C25.0414 23.8906 25.0154 23.8899 24.9868 23.8897C25.3299 23.4868 25.5613 23.0276 25.681 22.5122C25.8007 21.9967 25.7954 21.4826 25.6649 20.9698C25.6115 20.7594 25.4915 20.5988 25.3048 20.4879C25.1182 20.3769 24.9197 20.3482 24.7092 20.4017C24.4988 20.4552 24.3381 20.5753 24.2272 20.7619C24.1163 20.9484 24.0877 21.1469 24.1413 21.3572C24.1972 21.5675 24.2111 21.7806 24.1831 21.9964C24.1551 22.2122 24.0873 22.4147 23.9797 22.6039C23.872 22.793 23.7325 22.9548 23.5612 23.0892C23.39 23.2235 23.1996 23.3205 22.9902 23.38C22.9828 23.382 22.9765 23.3858 22.9693 23.3879L22.3738 23.4936C21.3683 23.5817 20.5119 23.9857 19.8048 24.7056C19.2222 25.325 19.2222 26.0749 19.2222 26.6801V41.7079H18.176C17.9697 41.704 17.7892 41.6339 17.6344 41.4975C17.4797 41.3611 17.3875 41.1909 17.3578 40.9868C17.1154 39.4319 16.6814 37.9323 16.0558 36.4881C15.2666 34.6498 14.2532 32.9446 13.0155 31.3726C12.5445 30.7785 11.9902 30.2608 11.4907 29.6922C10.4438 28.5032 9.64023 27.1679 9.08011 25.6862C8.51999 24.2046 8.23928 22.6718 8.23799 21.0879C8.23799 13.833 14.2321 7.93042 21.5998 7.93042C28.9674 7.93042 34.9615 13.833 34.9615 21.0879C34.9627 22.7881 34.6424 24.4254 34.0006 25.9999C33.3588 27.5744 32.4432 28.9694 31.2536 30.1847Z" fill="black"/>
<path d="M21.6004 4.79126C21.8175 4.79124 22.0027 4.71454 22.1562 4.56116C22.3097 4.40778 22.3864 4.22264 22.3864 4.00574V0.863648C22.3864 0.646732 22.3097 0.461582 22.1562 0.308199C22.0027 0.154816 21.8175 0.078125 21.6004 0.078125C21.3834 0.078125 21.1981 0.154816 21.0447 0.308199C20.8912 0.461582 20.8145 0.646732 20.8145 0.863648V4.00574C20.8145 4.22266 20.8912 4.40781 21.0447 4.56119C21.1982 4.71457 21.3834 4.79126 21.6004 4.79126Z" fill="black"/>
<path d="M14.2567 5.62464C14.3398 5.82503 14.4816 5.96672 14.6821 6.0497C14.8827 6.13269 15.0832 6.13266 15.2837 6.04962C15.4842 5.96658 15.626 5.82486 15.709 5.62444C15.792 5.42403 15.792 5.22362 15.7089 5.02323L14.5058 2.12009C14.4227 1.9197 14.2809 1.77801 14.0803 1.69503C13.8798 1.61205 13.6793 1.61207 13.4788 1.69511C13.2783 1.77815 13.1365 1.91988 13.0535 2.12029C12.9704 2.32071 12.9705 2.52111 13.0535 2.72151L14.2567 5.62464Z" fill="black"/>
<path d="M8.60663 9.41968C8.81325 9.64778 9.06844 9.78685 9.37221 9.8369C9.4643 9.84379 9.55292 9.82936 9.63807 9.79363C9.82344 9.72345 9.96238 9.60076 10.0549 9.42555C10.1474 9.25034 10.1703 9.06646 10.1237 8.87392C10.0303 8.63704 9.88636 8.43631 9.69197 8.27174C9.0948 7.67663 8.49763 7.08152 7.90045 6.48641C7.76602 6.33388 7.60758 6.2127 7.42513 6.12287C7.11113 5.99345 6.83356 6.04827 6.59242 6.28734C6.35128 6.52641 6.29419 6.80337 6.42116 7.11822C6.51197 7.30545 6.63565 7.46764 6.7922 7.60479C7.39702 8.20975 8.00183 8.81472 8.60663 9.41968Z" fill="black"/>
<path d="M5.92446 13.9522L3.02 12.7498C2.81949 12.6668 2.61897 12.6667 2.41843 12.7497C2.2179 12.8327 2.07609 12.9744 1.993 13.1748C1.90991 13.3752 1.90989 13.5756 1.99292 13.776C2.07595 13.9764 2.21772 14.1181 2.41823 14.2012C2.41823 14.2012 5.31775 15.4016 5.3227 15.4036C5.52319 15.483 5.72308 15.4815 5.92234 15.3991C6.12161 15.3166 6.26406 15.1765 6.3497 14.9787C6.4328 14.7783 6.43284 14.5779 6.3498 14.3774C6.26677 14.177 6.12499 14.0353 5.92446 13.9522Z" fill="black"/>
<path d="M4.30786 20.5H1.16392C0.946872 20.5 0.761613 20.5767 0.60814 20.7301C0.454666 20.8835 0.377929 21.0686 0.37793 21.2855C0.377929 21.5024 0.454666 21.6876 0.60814 21.841C0.761613 21.9944 0.946872 22.071 1.16392 22.071H4.30786C4.52491 22.071 4.71016 21.9944 4.86364 21.841C5.01711 21.6876 5.09385 21.5024 5.09385 21.2855C5.09385 21.0686 5.01711 20.8835 4.86364 20.7301C4.71016 20.5767 4.52491 20.5 4.30786 20.5Z" fill="black"/>
<path d="M42.0354 20.5H38.8915C38.6744 20.5 38.4891 20.5767 38.3357 20.7301C38.1822 20.8835 38.1055 21.0686 38.1055 21.2855C38.1055 21.5024 38.1822 21.6876 38.3357 21.841C38.4891 21.9944 38.6744 22.071 38.8915 22.071H42.0354C42.2524 22.071 42.4377 21.9944 42.5912 21.841C42.7446 21.6876 42.8214 21.5024 42.8214 21.2855C42.8214 21.0686 42.7446 20.8835 42.5912 20.7301C42.4377 20.5767 42.2524 20.5 42.0354 20.5Z" fill="black"/>
<path d="M41.2061 13.1748C41.1231 12.9744 40.9813 12.8327 40.7807 12.7497C40.5802 12.6667 40.3796 12.6668 40.1791 12.7498L37.2747 13.9523C37.0742 14.0353 36.9324 14.177 36.8494 14.3774C36.7663 14.5779 36.7664 14.7783 36.8494 14.9787C36.9325 15.1791 37.0743 15.3207 37.2749 15.4037C37.4754 15.4867 37.6759 15.4867 37.8764 15.4036L40.7809 14.2012C40.9814 14.1182 41.1232 13.9764 41.2062 13.776C41.2893 13.5756 41.2892 13.3752 41.2061 13.1748Z" fill="black"/>
<path d="M36.6055 6.29264C36.4521 6.13921 36.2668 6.0625 36.0498 6.0625C35.8327 6.0625 35.6475 6.13921 35.4941 6.29264L33.271 8.51458C33.1172 8.66788 33.0402 8.85309 33.04 9.07019C33.0399 9.2873 33.1166 9.47261 33.2702 9.62613C33.4238 9.77964 33.6093 9.85633 33.8265 9.85618C34.0437 9.85603 34.229 9.77909 34.3824 9.62536L36.6055 7.40342C36.759 7.25007 36.8358 7.06494 36.8358 6.84803C36.8358 6.63111 36.759 6.44598 36.6055 6.29264Z" fill="black"/>
<path d="M27.9154 6.04961C28.1159 6.13303 28.3165 6.13322 28.5171 6.05018C28.7178 5.96714 28.8595 5.82529 28.9423 5.62465L30.1454 2.72151C30.2285 2.52112 30.2285 2.32071 30.1455 2.12029C30.0625 1.91988 29.9207 1.77815 29.7202 1.69511C29.5197 1.61207 29.3192 1.61205 29.1186 1.69503C28.9181 1.77801 28.7763 1.9197 28.6932 2.12009L27.49 5.02322C27.407 5.22364 27.407 5.42406 27.49 5.62447C27.5731 5.82489 27.7149 5.9666 27.9154 6.04961Z" fill="black"/>
<path d="M25.5296 44.0703H17.6698C17.4527 44.0703 17.2675 44.147 17.114 44.3004C16.9605 44.4538 16.8838 44.6389 16.8838 44.8558C16.8838 45.0727 16.9605 45.2579 17.114 45.4113C17.2675 45.5647 17.4527 45.6414 17.6698 45.6414H25.5296C25.7467 45.6414 25.9319 45.5647 26.0854 45.4113C26.2389 45.2579 26.3156 45.0727 26.3156 44.8558C26.3156 44.6389 26.2389 44.4538 26.0854 44.3004C25.9319 44.147 25.7467 44.0703 25.5296 44.0703Z" fill="black"/>
<path d="M24.7428 46.4219H18.4549C18.2379 46.4219 18.0526 46.4986 17.8992 46.6519C17.7457 46.8053 17.6689 46.9905 17.6689 47.2074C17.6689 47.4243 17.7457 47.6095 17.8992 47.7628C18.0526 47.9162 18.2379 47.9929 18.4549 47.9929H24.7428C24.9599 47.9929 25.1451 47.9162 25.2986 47.7628C25.4521 47.6095 25.5288 47.4243 25.5288 47.2074C25.5288 46.9905 25.4521 46.8053 25.2986 46.6519C25.1451 46.4986 24.9599 46.4219 24.7428 46.4219Z" fill="black"/>
<path d="M23.1711 48.7891H20.0272C19.8102 48.7891 19.6249 48.8658 19.4714 49.0191C19.3179 49.1725 19.2412 49.3577 19.2412 49.5746C19.2412 49.7915 19.3179 49.9766 19.4714 50.13C19.6249 50.2834 19.8102 50.3601 20.0272 50.3601H23.1711C23.3882 50.3601 23.5734 50.2834 23.7269 50.13C23.8804 49.9766 23.9571 49.7915 23.9571 49.5746C23.9571 49.3577 23.8804 49.1725 23.7269 49.0191C23.5734 48.8658 23.3882 48.7891 23.1711 48.7891Z" fill="black"/>
</svg>
