<svg width="30" height="45" viewBox="0 0 30 45" fill="none" xmlns="http://www.w3.org/2000/svg">
<path d="M14.702 15.2105C11.8427 15.2105 9.18154 16.0738 6.93207 17.5426V11.8616C6.93207 7.4718 10.4178 3.90099 14.702 3.90099C16.7715 3.90099 18.725 4.72854 20.1964 6.2233C21.6636 7.73953 22.4712 9.74112 22.4712 11.8616C22.4712 12.6719 23.1112 13.3277 23.9021 13.3277C24.693 13.3277 25.333 12.6719 25.333 11.8616C25.333 8.96368 24.2305 6.22759 22.2197 4.1501C20.2006 2.09841 17.5302 0.96875 14.702 0.96875C8.83945 0.96875 4.0703 5.85535 4.0703 11.8616V19.9929C1.66957 22.6472 0.188477 26.1868 0.188477 30.0821C0.188475 38.2818 6.69942 44.9524 14.702 44.9524C22.7046 44.9524 29.2148 38.2818 29.2148 30.0821C29.2148 21.8824 22.7046 15.2105 14.702 15.2105ZM14.702 42.0201C8.27702 42.0201 3.05024 36.6654 3.05024 30.0821C3.05024 23.4989 8.27702 18.1427 14.702 18.1427C21.127 18.1427 26.3531 23.4989 26.3531 30.0821C26.3531 36.6654 21.127 42.0201 14.702 42.0201Z" fill="black"/>
<path d="M18.2475 25.9998L13.3135 31.0554L11.1574 28.8462C10.5985 28.2735 9.69298 28.2735 9.13405 28.8462C8.57512 29.4189 8.5751 30.3467 9.13405 30.9194L12.3018 34.1652C12.5813 34.4515 12.9474 34.5947 13.3135 34.5947C13.6796 34.5947 14.0457 34.4515 14.3252 34.1652L20.2709 28.073C20.8298 27.5003 20.8298 26.5725 20.2709 25.9998C19.7119 25.4271 18.8065 25.4271 18.2475 25.9998Z" fill="black"/>
</svg>
