<svg width="39" height="36" viewBox="0 0 39 36" fill="none" xmlns="http://www.w3.org/2000/svg">
<path d="M12.3023 26.2798C11.9283 26.2798 11.6091 26.1455 11.3447 25.877L7.73222 22.2112C7.46738 21.9427 7.33496 21.6184 7.33496 21.2384C7.33496 20.8584 7.46738 20.5341 7.73222 20.2656L11.3447 16.5985C11.6092 16.3297 11.9287 16.1953 12.303 16.1953C12.6772 16.1953 12.9967 16.3297 13.2613 16.5985C13.5258 16.8672 13.658 17.1916 13.6577 17.5716C13.6575 17.9515 13.5249 18.2757 13.2599 18.5441L10.6051 21.2377L13.2599 23.9327C13.4535 24.1293 13.5771 24.364 13.6305 24.6367C13.6839 24.9093 13.6582 25.1741 13.5534 25.431C13.4485 25.6879 13.2822 25.8936 13.0545 26.0481C12.8268 26.2026 12.5761 26.2798 12.3023 26.2798Z" fill="black"/>
<path d="M26.7498 26.2792C26.4759 26.2791 26.2251 26.2018 25.9974 26.0473C25.7697 25.8929 25.6035 25.6872 25.4987 25.4303C25.3939 25.1735 25.3682 24.9087 25.4216 24.636C25.475 24.3633 25.5985 24.1287 25.7922 23.932L28.447 21.237L25.7922 18.5434C25.5275 18.275 25.3951 17.9509 25.395 17.5711C25.3949 17.1913 25.527 16.8671 25.7915 16.5985C26.0559 16.3298 26.3752 16.1954 26.7493 16.1953C27.1234 16.1952 27.4428 16.3293 27.7074 16.5978L31.3198 20.2649C31.5847 20.5335 31.7171 20.8577 31.7171 21.2377C31.7171 21.6177 31.5847 21.942 31.3198 22.2105L27.7074 25.8763C27.4428 26.1449 27.1236 26.2792 26.7498 26.2792Z" fill="black"/>
<path d="M17.7201 26.2819C17.4854 26.2818 17.2657 26.2237 17.0608 26.1076C16.8559 25.9916 16.6918 25.8322 16.5685 25.6296C16.4452 25.427 16.3782 25.2067 16.3677 24.9688C16.3571 24.7308 16.4043 24.5053 16.5091 24.2923L20.1202 16.958C20.2885 16.6182 20.5506 16.3885 20.9063 16.2691C21.262 16.1496 21.6073 16.1753 21.942 16.3461C22.2768 16.517 22.503 16.783 22.6207 17.1441C22.7384 17.5052 22.7131 17.8557 22.5448 18.1955L18.9337 25.5284C18.6818 26.033 18.2773 26.2842 17.7201 26.2819Z" fill="black"/>
<path d="M37.1339 35.9063H1.917C1.54296 35.9063 1.2237 35.772 0.959222 35.5036C0.694741 35.2351 0.5625 34.911 0.5625 34.5313V1.53125C0.5625 1.15156 0.694741 0.827464 0.959222 0.558978C1.2237 0.290493 1.54296 0.15625 1.917 0.15625H37.1339C37.5079 0.15625 37.8272 0.290493 38.0916 0.558978C38.3561 0.827464 38.4884 1.15156 38.4884 1.53125V34.5313C38.4884 34.911 38.3561 35.2351 38.0916 35.5036C37.8272 35.772 37.5079 35.9063 37.1339 35.9063ZM3.27149 33.1563H35.7794V2.90625H3.27149V33.1563Z" fill="black"/>
<path d="M37.1339 11.1641H1.917C1.54296 11.1641 1.2237 11.0298 0.959222 10.7613C0.694741 10.4929 0.5625 10.1688 0.5625 9.78906C0.5625 9.40937 0.694741 9.08528 0.959222 8.81679C1.2237 8.54831 1.54296 8.41406 1.917 8.41406H37.1339C37.5079 8.41406 37.8272 8.54831 38.0916 8.81679C38.3561 9.08528 38.4884 9.40937 38.4884 9.78906C38.4884 10.1688 38.3561 10.4929 38.0916 10.7613C37.8272 11.0298 37.5079 11.1641 37.1339 11.1641Z" fill="black"/>
<path d="M24.9425 7.02664C24.8515 7.02368 24.7613 7.01451 24.6716 6.99914C24.5862 6.98408 24.5049 6.95658 24.4278 6.91664C24.3407 6.8862 24.259 6.84495 24.1826 6.79288L23.9808 6.62788C23.7189 6.35678 23.5879 6.03136 23.5879 5.65163C23.5879 5.27191 23.7189 4.94649 23.9808 4.67538C24.4111 4.25376 24.9033 4.15751 25.4572 4.38663C25.5409 4.4145 25.6177 4.45575 25.6874 4.51038C25.7673 4.56538 25.8364 4.62038 25.9042 4.67538C26.1661 4.94649 26.297 5.27191 26.297 5.65163C26.297 6.03136 26.1661 6.35678 25.9042 6.62788C25.7712 6.7498 25.6223 6.84605 25.4572 6.91664C25.2927 6.98777 25.1212 7.02444 24.9425 7.02664Z" fill="black"/>
<path d="M29.0059 7.0247C28.915 7.02175 28.8247 7.01258 28.735 6.9972C28.6497 6.98215 28.5684 6.95465 28.4912 6.9147C28.4042 6.88427 28.3225 6.84302 28.2461 6.79095C28.1757 6.7398 28.1085 6.6848 28.0442 6.62595C27.9175 6.49534 27.8227 6.34409 27.7598 6.1722C27.6087 5.82387 27.6087 5.47554 27.7598 5.1272C27.829 4.95941 27.9238 4.80816 28.0442 4.67345C28.238 4.47514 28.4698 4.34851 28.7395 4.29357C29.0093 4.23863 29.2712 4.26471 29.5254 4.37181C29.7795 4.47892 29.9826 4.64885 30.1347 4.88161C30.2868 5.11436 30.362 5.3704 30.3604 5.6497C30.355 6.02715 30.224 6.35257 29.9676 6.62595C29.9029 6.68482 29.8352 6.73982 29.7644 6.79095C29.6885 6.84299 29.6072 6.88424 29.5206 6.9147C29.4434 6.95445 29.3621 6.98195 29.2768 6.9972C29.1872 7.01312 29.0969 7.02228 29.0059 7.0247Z" fill="black"/>
<path d="M33.0698 7.02971C32.6942 7.03358 32.3735 6.9007 32.1079 6.63108C31.8423 6.36145 31.7114 6.036 31.7153 5.65471C31.7105 5.47181 31.7466 5.29764 31.8236 5.13221C31.8928 4.96442 31.9876 4.81317 32.1081 4.67846C32.3796 4.42407 32.7002 4.29687 33.0697 4.29688C33.4393 4.29687 33.7599 4.42407 34.0314 4.67846C34.1519 4.81317 34.2467 4.96442 34.3159 5.13221C34.386 5.29912 34.4221 5.47328 34.4242 5.65471C34.4281 6.03599 34.2972 6.36145 34.0316 6.63108C33.766 6.9007 33.4454 7.03358 33.0698 7.02971Z" fill="black"/>
</svg>
