<svg width="47" height="31" viewBox="0 0 47 31" fill="none" xmlns="http://www.w3.org/2000/svg">
<path d="M3.22664 15.4128C5.81923 20.5122 10.2092 24.4717 15.5485 26.5244C20.8919 28.5731 26.7993 28.5731 32.1427 26.5244C37.482 24.4717 41.872 20.5122 44.4645 15.4128C41.872 10.3135 37.482 6.35402 32.1427 4.30534C26.7993 2.2526 20.8879 2.2526 15.5485 4.30534C10.2092 6.35402 5.81923 10.3135 3.22664 15.4128ZM23.8456 30.1715C19.0945 30.1512 14.4449 28.8043 10.4242 26.277C6.40347 23.7496 3.1739 20.1431 1.10064 15.8713C0.95864 15.5832 0.95864 15.2465 1.10064 14.9544C3.85957 9.21812 8.69176 4.7313 14.6194 2.4027C20.5511 0.0740995 27.1401 0.0740995 33.0718 2.4027C39.0035 4.7313 43.8316 9.21406 46.5905 14.9544C46.7285 15.2465 46.7285 15.5832 46.5905 15.8713C44.5173 20.1431 41.2877 23.7496 37.267 26.277C33.2462 28.8043 28.5966 30.1512 23.8456 30.1715Z" fill="#040606"/>
<path d="M23.8465 26.2568C23.2623 26.2608 22.7835 25.7903 22.7754 25.2061C22.7754 24.9262 22.8809 24.6584 23.0756 24.4596C23.2704 24.2649 23.5382 24.1513 23.814 24.1513V25.2061L23.8181 24.1513C24.1224 24.1513 24.4267 24.1351 24.731 24.1067C25.3112 24.0499 25.8264 24.4718 25.8873 25.0479C25.9441 25.628 25.5221 26.1432 24.942 26.2041C24.5849 26.2406 24.2157 26.2568 23.8465 26.2568Z" fill="#040606"/>
<path d="M19.8362 25.3969C19.686 25.3969 19.5359 25.3685 19.402 25.3036C19.0572 25.1494 18.7245 24.975 18.3958 24.7884C18.1565 24.6464 17.9779 24.4192 17.9049 24.1474C17.8319 23.8756 17.8725 23.5875 18.0104 23.3441C18.1524 23.1048 18.3837 22.9263 18.6555 22.8533C18.9273 22.7843 19.2113 22.8249 19.4548 22.9628C19.7185 23.117 19.9903 23.2589 20.2703 23.3847C20.7247 23.5875 20.9722 24.0825 20.8667 24.5652C20.7612 25.0521 20.3311 25.4009 19.8362 25.3969Z" fill="#040606"/>
<path d="M28.71 24.961C28.2313 24.961 27.8134 24.6406 27.6917 24.1781C27.57 23.7197 27.7688 23.2329 28.1826 22.9935C28.4463 22.8393 28.7019 22.6771 28.9494 22.4986C29.4201 22.1537 30.0814 22.2633 30.4222 22.7339C30.763 23.2045 30.6575 23.8617 30.1869 24.2024C29.8785 24.4255 29.5621 24.6324 29.2334 24.8191C29.0752 24.9124 28.8926 24.961 28.71 24.961Z" fill="#040606"/>
<path d="M15.9128 22.2043C15.572 22.2043 15.2555 22.042 15.0567 21.7702C14.8376 21.4619 14.6307 21.1454 14.44 20.8168C14.298 20.5734 14.2615 20.2854 14.3345 20.0176C14.4035 19.7458 14.582 19.5146 14.8254 19.3726C15.0689 19.2347 15.3569 19.1982 15.6288 19.2712C15.8966 19.3442 16.1278 19.5227 16.2658 19.7661C16.4199 20.0298 16.5863 20.2854 16.7648 20.5329C16.9961 20.8533 17.0285 21.2753 16.85 21.6282C16.6715 21.9811 16.3063 22.2043 15.9128 22.2043Z" fill="#040606"/>
<path d="M32.3043 21.3913C31.927 21.3913 31.5781 21.1885 31.3914 20.8639C31.2048 20.5353 31.2048 20.1337 31.3955 19.8092C31.5456 19.5455 31.6876 19.2737 31.8134 18.9937C31.927 18.7382 32.138 18.5434 32.4017 18.442C32.6613 18.3446 32.9535 18.3528 33.2091 18.4704C33.7406 18.7098 33.9759 19.3345 33.7325 19.8619C33.5783 20.2067 33.4038 20.5434 33.2131 20.868C33.0265 21.1925 32.6776 21.3913 32.3043 21.3913Z" fill="#040606"/>
<path d="M14.1076 17.4678C13.564 17.4678 13.1136 17.058 13.0568 16.5185C13.0243 16.1615 13.0041 15.8004 13.0041 15.4394C13 15.4191 13 15.4029 13 15.3907C13 15.1108 13.1136 14.843 13.3124 14.6443C13.5072 14.4495 13.7749 14.3359 14.0549 14.3359C14.6188 14.34 15.0854 14.7822 15.1098 15.3461C15.1098 15.3664 15.1098 15.3907 15.1098 15.411C15.1098 15.7112 15.126 16.0114 15.1585 16.3075C15.2153 16.8877 14.7933 17.4029 14.2131 17.4597C14.1766 17.4637 14.1401 17.4678 14.1076 17.4678Z" fill="#040606"/>
<path d="M33.6317 16.4858C33.3558 16.4898 33.088 16.3844 32.8892 16.1896C32.6904 15.9949 32.5809 15.7312 32.5768 15.4513C32.5768 15.427 32.5809 15.3621 32.5809 15.3337C32.5809 15.1024 32.5647 14.7982 32.5322 14.498C32.4713 13.9178 32.8933 13.4026 33.4735 13.3418C34.0537 13.2809 34.5689 13.7028 34.6298 14.2789C34.6663 14.6562 34.6907 15.0335 34.6907 15.4107C34.6907 15.999 34.22 16.4777 33.6317 16.4858Z" fill="#040606"/>
<path d="M14.9074 12.4603C14.5504 12.4603 14.2177 12.2818 14.0229 11.9816C13.8282 11.6814 13.7998 11.3041 13.9458 10.9755C14.1 10.6307 14.2745 10.2939 14.4652 9.9694C14.7573 9.46635 15.4024 9.29597 15.9014 9.58806C16.4045 9.88015 16.579 10.5211 16.2869 11.0242C16.1327 11.2879 15.9947 11.5597 15.873 11.8396C15.7026 12.2169 15.3253 12.4603 14.9074 12.4603Z" fill="#040606"/>
<path d="M32.3248 11.583C31.9474 11.583 31.5985 11.3842 31.4119 11.0556C31.2618 10.7919 31.0914 10.5363 30.9129 10.2929C30.572 9.82232 30.6775 9.16106 31.1482 8.82029C31.6188 8.47547 32.2761 8.58094 32.621 9.05153C32.84 9.35985 33.047 9.67628 33.2377 10.0049C33.4243 10.3294 33.4243 10.731 33.2377 11.0556C33.047 11.3842 32.7021 11.583 32.3248 11.583Z" fill="#040606"/>
<path d="M18.1042 8.54168C17.6457 8.54168 17.244 8.24959 17.102 7.81551C16.96 7.38144 17.1142 6.90273 17.4834 6.63499C17.7877 6.41186 18.1082 6.20497 18.4369 6.01835C18.6763 5.87637 18.9643 5.83985 19.2362 5.90882C19.508 5.98184 19.7393 6.16034 19.8772 6.40375C20.0192 6.64716 20.0557 6.93519 19.9827 7.20294C19.9097 7.47474 19.7311 7.70598 19.4877 7.84391C19.224 7.99401 18.9684 8.16034 18.7249 8.33884C18.5424 8.47271 18.3273 8.54168 18.1042 8.54168Z" fill="#040606"/>
<path d="M28.7466 7.98737C28.56 7.98737 28.3774 7.93869 28.2191 7.84539C27.9554 7.69123 27.6836 7.5533 27.4036 7.42754C26.8762 7.19224 26.6368 6.5675 26.8762 6.03606C27.1115 5.50867 27.7323 5.26932 28.2678 5.50462C28.6127 5.65877 28.9454 5.83322 29.274 6.01983C29.6879 6.25918 29.8907 6.746 29.765 7.20847C29.6392 7.66689 29.2213 7.98737 28.7466 7.98737Z" fill="#040606"/>
<path d="M22.8315 6.73637C22.2716 6.73637 21.8091 6.29823 21.7807 5.73434C21.7523 5.1745 22.1702 4.69174 22.726 4.63495C23.0993 4.59843 23.4725 4.57815 23.8458 4.57815C24.426 4.57409 24.9047 5.04468 24.9047 5.62886C24.9088 6.20898 24.4382 6.68363 23.8539 6.68769H23.8458C23.5456 6.68769 23.2413 6.69985 22.941 6.73231C22.9045 6.73637 22.868 6.73637 22.8315 6.73637Z" fill="#040606"/>
<path d="M23.846 20.3882C22.069 20.3882 20.4298 19.443 19.5413 17.9055C18.6568 16.3679 18.6568 14.4734 19.5413 12.9359C20.4298 11.3984 22.069 10.4531 23.846 10.4531C24.4262 10.4531 24.9009 10.9237 24.9009 11.5038C24.9009 12.088 24.4262 12.5586 23.846 12.5586C23.0873 12.5586 22.3611 12.8588 21.8215 13.3984C21.2859 13.9339 20.9857 14.66 20.9857 15.4186C20.9857 16.1773 21.2859 16.9075 21.8215 17.443C22.3611 17.9785 23.0873 18.2787 23.846 18.2787C24.6047 18.2787 25.331 17.9785 25.8706 17.443C26.4062 16.9075 26.7064 16.1773 26.7064 15.4186C26.7064 14.8385 27.1811 14.3639 27.7613 14.3639C28.3415 14.3639 28.8121 14.8385 28.8121 15.4186C28.8121 16.7371 28.2887 17.9988 27.3596 18.9318C26.4264 19.8608 25.1646 20.3882 23.846 20.3882Z" fill="#040606"/>
</svg>
