<svg width="38" height="38" viewBox="0 0 38 38" fill="none" xmlns="http://www.w3.org/2000/svg">
<path d="M2.72467 34.9876H26.9548V10.7608H2.72467V34.9876ZM28.0054 37.0955H1.67403C1.39255 37.0955 1.12743 36.9842 0.927781 36.7878C0.731399 36.5881 0.620117 36.323 0.620117 36.0416V9.71016C0.620117 9.42868 0.731399 9.16029 0.927781 8.96391C1.12743 8.76753 1.39255 8.65625 1.67403 8.65625H28.0054C28.2869 8.65625 28.5553 8.76753 28.7517 8.96391C28.948 9.16029 29.0626 9.42868 29.0626 9.71016V36.0416C29.0626 36.323 28.948 36.5881 28.7517 36.7878C28.5553 36.9842 28.2869 37.0955 28.0054 37.0955Z" fill="#040606"/>
<path d="M36.4336 2.84497C36.0245 2.84497 35.6514 2.60604 35.4779 2.23619C35.0328 2.02672 34.7906 1.53577 34.8953 1.05136C35.0033 0.570229 35.4288 0.226562 35.9263 0.226562H36.4336C36.7151 0.226562 36.9835 0.337845 37.1799 0.534226C37.3763 0.73388 37.4876 1.00227 37.4876 1.28047V1.79106C37.4876 2.06927 37.3763 2.33766 37.1799 2.53731C36.9835 2.73369 36.7151 2.84497 36.4336 2.84497Z" fill="#040606"/>
<path d="M15.8861 2.33438H14.8322C14.2496 2.33438 13.7783 1.86307 13.7783 1.28047C13.7783 0.697876 14.2496 0.226562 14.8322 0.226562H15.8861C16.4655 0.226562 16.9368 0.697876 16.9368 1.28047C16.9368 1.86307 16.4655 2.33438 15.8861 2.33438ZM21.159 2.33438H20.1051C19.5225 2.33438 19.0511 1.86307 19.0511 1.28047C19.0511 0.697876 19.5225 0.226562 20.1051 0.226562H21.159C21.7416 0.226562 22.2129 0.697876 22.2129 1.28047C22.2129 1.86307 21.7416 2.33438 21.159 2.33438ZM26.4318 2.33438H25.3779C24.7953 2.33438 24.324 1.86307 24.324 1.28047C24.324 0.697876 24.7953 0.226562 25.3779 0.226562H26.4318C27.0144 0.226562 27.4857 0.697876 27.4857 1.28047C27.4857 1.86307 27.0144 2.33438 26.4318 2.33438ZM31.7046 2.33438H30.6507C30.0714 2.33438 29.6001 1.86307 29.6001 1.28047C29.6001 0.697876 30.0714 0.226562 30.6507 0.226562H31.7046C32.2872 0.226562 32.7585 0.697876 32.7585 1.28047C32.7585 1.86307 32.2872 2.33438 31.7046 2.33438Z" fill="#040606"/>
<path d="M10.1018 2.84497C9.82028 2.84497 9.5519 2.73369 9.35551 2.53731C9.15913 2.33766 9.04785 2.06927 9.04785 1.79106V1.28047C9.04785 1.00227 9.15913 0.73388 9.35551 0.534226C9.5519 0.337845 9.82028 0.226562 10.1018 0.226562H10.6091C11.1033 0.226562 11.5321 0.570229 11.6401 1.05136C11.7448 1.53577 11.5026 2.02672 11.0542 2.23619C10.8807 2.60604 10.5109 2.84497 10.1018 2.84497Z" fill="#040606"/>
<path d="M10.1018 8.11486C9.82028 8.11486 9.5519 8.00357 9.35551 7.80392C9.15913 7.60754 9.04785 7.33915 9.04785 7.06095V6.00704C9.04785 5.42444 9.51917 4.95312 10.1018 4.95312C10.6811 4.95312 11.1524 5.42444 11.1524 6.00704V7.06095C11.1524 7.33915 11.0444 7.60754 10.8447 7.80392C10.6484 8.00357 10.38 8.11486 10.1018 8.11486ZM10.1018 13.3877C9.82028 13.3877 9.5519 13.2764 9.35551 13.08C9.15913 12.8804 9.04785 12.6152 9.04785 12.3338V11.2799C9.04785 10.6973 9.51917 10.2259 10.1018 10.2259C10.6811 10.2259 11.1524 10.6973 11.1524 11.2799V12.3338C11.1524 12.6152 11.0444 12.8804 10.8447 13.08C10.6484 13.2764 10.38 13.3877 10.1018 13.3877ZM10.1018 18.6605C9.82028 18.6638 9.5519 18.5492 9.35551 18.3528C9.15913 18.1565 9.04785 17.8881 9.04785 17.6066V16.5527C9.04785 15.9701 9.51917 15.4988 10.1018 15.4988C10.6811 15.4988 11.1524 15.9701 11.1524 16.5527V17.6066C11.1524 17.8881 11.0444 18.1565 10.8447 18.3528C10.6484 18.5492 10.38 18.6638 10.1018 18.6605ZM10.1018 23.9333C9.82028 23.9333 9.5519 23.822 9.35551 23.6257C9.15913 23.4293 9.04785 23.1609 9.04785 22.8794V21.8255C9.04785 21.2462 9.51917 20.7749 10.1018 20.7749C10.6811 20.7749 11.1524 21.2462 11.1524 21.8255V22.8794C11.1524 23.1609 11.0444 23.4293 10.8447 23.6257C10.6484 23.822 10.38 23.9333 10.1018 23.9333Z" fill="#040606"/>
<path d="M10.6091 28.6744H10.1018C9.82028 28.6744 9.5519 28.5599 9.35551 28.3635C9.15913 28.1671 9.04785 27.8987 9.04785 27.6172V27.1099C9.04785 26.6157 9.39152 26.1869 9.87265 26.0789C10.3538 25.9742 10.848 26.2164 11.0542 26.6648C11.5026 26.8743 11.7448 27.3652 11.6401 27.8463C11.5321 28.3275 11.1033 28.6744 10.6091 28.6744Z" fill="#040606"/>
<path d="M15.8829 28.6625H14.829C14.2496 28.6625 13.7783 28.1912 13.7783 27.6053C13.7783 27.026 14.2496 26.5547 14.829 26.5547H15.8829C16.4655 26.5547 16.9368 27.026 16.9368 27.6053C16.9368 28.1912 16.4655 28.6625 15.8829 28.6625ZM21.159 28.6625H20.1051C19.5225 28.6625 19.0511 28.1912 19.0511 27.6053C19.0511 27.026 19.5225 26.5547 20.1051 26.5547H21.159C21.7416 26.5547 22.2129 27.026 22.2129 27.6053C22.2129 28.1912 21.7416 28.6625 21.159 28.6625ZM26.4318 28.6625H25.3746C24.7953 28.6625 24.324 28.1912 24.324 27.6053C24.324 27.026 24.7953 26.5547 25.3746 26.5547H26.4318C27.0144 26.5547 27.4857 27.026 27.4857 27.6053C27.4857 28.1912 27.0144 28.6625 26.4318 28.6625ZM31.7046 28.6625H30.6507C30.0681 28.6625 29.5968 28.1912 29.5968 27.6053C29.5968 27.026 30.0681 26.5547 30.6507 26.5547H31.7046C32.2872 26.5547 32.7585 27.026 32.7585 27.6053C32.7585 28.1912 32.2872 28.6625 31.7046 28.6625Z" fill="#040606"/>
<path d="M36.4336 28.6744H35.9263C35.4288 28.6744 35.0033 28.3275 34.8953 27.8463C34.7906 27.3652 35.0328 26.8743 35.4779 26.6648C35.6874 26.2164 36.1816 25.9742 36.6628 26.0789C37.1439 26.1869 37.4876 26.6157 37.4876 27.1099V27.6172C37.4876 27.8987 37.3763 28.1671 37.1799 28.3635C36.9835 28.5599 36.7151 28.6744 36.4336 28.6744Z" fill="#040606"/>
<path d="M36.4338 8.11486C36.1556 8.11486 35.8872 8.00357 35.6875 7.80719C35.4912 7.61081 35.3799 7.34242 35.3799 7.06095V6.00704C35.3799 5.42444 35.8512 4.95312 36.4338 4.95312C37.0164 4.95312 37.4877 5.42444 37.4877 6.00704V7.06095C37.4877 7.34242 37.3764 7.61081 37.18 7.80719C36.9837 8.00357 36.7153 8.11486 36.4338 8.11486ZM36.4338 13.3877V13.391C36.1556 13.391 35.8872 13.2797 35.6875 13.08C35.4912 12.8836 35.3799 12.6152 35.3799 12.337V11.2799C35.3799 10.7005 35.8512 10.2259 36.4338 10.2259C37.0164 10.2259 37.4877 10.7005 37.4877 11.2799V12.337C37.4877 12.6152 37.3764 12.8836 37.18 13.08C36.9837 13.2797 36.7153 13.391 36.4338 13.391V13.3877ZM36.4338 18.6638C36.1556 18.6638 35.8872 18.5525 35.6875 18.3528C35.4912 18.1565 35.3799 17.8881 35.3799 17.6099V16.5527C35.3799 15.9734 35.8512 15.502 36.4338 15.502C37.0164 15.502 37.4877 15.9734 37.4877 16.5527V17.6099C37.4877 17.8881 37.3764 18.1565 37.18 18.3528C36.9837 18.5525 36.7153 18.6638 36.4338 18.6638ZM36.4338 23.9366C36.1556 23.9366 35.8872 23.8253 35.6875 23.6257C35.4912 23.4293 35.3799 23.1642 35.3799 22.8827V21.8288C35.3799 21.2462 35.8512 20.7749 36.4338 20.7749C37.0164 20.7749 37.4877 21.2462 37.4877 21.8288V22.8827C37.4877 23.1642 37.3764 23.4293 37.18 23.6257C36.9837 23.8253 36.7153 23.9366 36.4338 23.9366Z" fill="#040606"/>
</svg>
