<svg width="43" height="43" viewBox="0 0 43 43" fill="none" xmlns="http://www.w3.org/2000/svg">
<path d="M18.3047 21.6727C18.3047 23.5284 19.7804 25.0333 21.5983 25.0333C22.8756 25.0333 23.9701 24.2843 24.5165 23.2005L24.5257 23.209L30.5382 12.1406L19.9831 18.745L19.993 18.7552C18.9907 19.3322 18.3047 20.4152 18.3047 21.6727Z" fill="black"/>
<path d="M34.8689 5.66426C31.4939 2.6544 27.1332 0.73257 22.1504 0.445312V5.5524C26.3027 5.82187 28.7492 7.16749 31.2058 9.26727L34.8689 5.66426Z" fill="black"/>
<path d="M37.2195 20.0835H42.2188C41.8833 14.9993 39.9342 10.8218 36.908 7.39844L33.3711 10.9853C35.5021 13.4766 36.9039 16.6941 37.2195 20.0835Z" fill="black"/>
<path d="M37.2422 22.6269C36.7132 31.1006 29.8329 37.8211 21.4286 37.8211C12.6796 37.8211 5.30016 30.5811 5.30016 21.655C5.30016 13.1575 12.1839 6.20488 19.658 5.5524V0.445312C8.86201 1.10541 0.317383 10.3739 0.317383 21.677C0.317383 33.4071 9.80127 42.9053 21.2974 42.9053C32.4521 42.9053 41.7184 33.6427 42.2508 22.6269H37.2422Z" fill="black"/>
</svg>
